<mxfile host="app.diagrams.net" agent="Mozilla/5.0 (Windows NT 10.0; Win64; x64) AppleWebKit/537.36 (KHTML, like Gecko) Chrome/131.0.0.0 Safari/537.36 Edg/131.0.0.0" version="25.0.3">
  <diagram id="C5RBs43oDa-KdzZeNtuy" name="Page-1">
    <mxGraphModel dx="3707" dy="1590" grid="1" gridSize="10" guides="1" tooltips="1" connect="1" arrows="1" fold="1" page="1" pageScale="1" pageWidth="827" pageHeight="1169" math="0" shadow="0">
      <root>
        <mxCell id="WIyWlLk6GJQsqaUBKTNV-0" />
        <mxCell id="WIyWlLk6GJQsqaUBKTNV-1" parent="WIyWlLk6GJQsqaUBKTNV-0" />
        <mxCell id="mvioNwK95yMqdUQ73LqQ-36" value="+" style="swimlane;fontFamily=Sarabun;fontSource=https%3A%2F%2Ffonts.googleapis.com%2Fcss%3Ffamily%3DSarabun;" parent="WIyWlLk6GJQsqaUBKTNV-1" vertex="1">
          <mxGeometry x="-740" y="60" width="1540" height="1670" as="geometry" />
        </mxCell>
        <mxCell id="pXdczCPLqUhGzNIIeVMN-3" style="edgeStyle=orthogonalEdgeStyle;rounded=0;orthogonalLoop=1;jettySize=auto;html=1;" parent="mvioNwK95yMqdUQ73LqQ-36" source="mvioNwK95yMqdUQ73LqQ-35" edge="1">
          <mxGeometry relative="1" as="geometry">
            <mxPoint x="320" y="130" as="targetPoint" />
          </mxGeometry>
        </mxCell>
        <mxCell id="mvioNwK95yMqdUQ73LqQ-35" value="&lt;font data-font-src=&quot;https://fonts.googleapis.com/css?family=Sarabun&quot; face=&quot;Sarabun&quot;&gt;Start&lt;/font&gt;" style="ellipse;whiteSpace=wrap;html=1;" parent="mvioNwK95yMqdUQ73LqQ-36" vertex="1">
          <mxGeometry x="255" y="40" width="130" height="30" as="geometry" />
        </mxCell>
        <mxCell id="jcwyDGyreayZHSaf-gwD-1" style="edgeStyle=orthogonalEdgeStyle;rounded=0;orthogonalLoop=1;jettySize=auto;html=1;" edge="1" parent="mvioNwK95yMqdUQ73LqQ-36" source="jcwyDGyreayZHSaf-gwD-0">
          <mxGeometry relative="1" as="geometry">
            <mxPoint x="320" y="260" as="targetPoint" />
          </mxGeometry>
        </mxCell>
        <mxCell id="jcwyDGyreayZHSaf-gwD-0" value="Declare &amp;amp; Init&lt;div&gt;maxheight = 191 is int&lt;/div&gt;&lt;div&gt;maxAge is int&lt;/div&gt;" style="rounded=0;whiteSpace=wrap;html=1;" vertex="1" parent="mvioNwK95yMqdUQ73LqQ-36">
          <mxGeometry x="255" y="130" width="130" height="60" as="geometry" />
        </mxCell>
        <mxCell id="jcwyDGyreayZHSaf-gwD-27" style="edgeStyle=orthogonalEdgeStyle;rounded=0;orthogonalLoop=1;jettySize=auto;html=1;" edge="1" parent="mvioNwK95yMqdUQ73LqQ-36" source="jcwyDGyreayZHSaf-gwD-2">
          <mxGeometry relative="1" as="geometry">
            <mxPoint x="320" y="430" as="targetPoint" />
          </mxGeometry>
        </mxCell>
        <mxCell id="jcwyDGyreayZHSaf-gwD-2" value="findHeight(maxheight)" style="shape=process;whiteSpace=wrap;html=1;backgroundOutline=1;" vertex="1" parent="mvioNwK95yMqdUQ73LqQ-36">
          <mxGeometry x="240" y="260" width="160" height="70" as="geometry" />
        </mxCell>
        <mxCell id="jcwyDGyreayZHSaf-gwD-5" style="edgeStyle=orthogonalEdgeStyle;rounded=0;orthogonalLoop=1;jettySize=auto;html=1;" edge="1" parent="mvioNwK95yMqdUQ73LqQ-36" source="jcwyDGyreayZHSaf-gwD-4">
          <mxGeometry relative="1" as="geometry">
            <mxPoint x="892.5" y="140" as="targetPoint" />
          </mxGeometry>
        </mxCell>
        <mxCell id="jcwyDGyreayZHSaf-gwD-4" value="findHeight(target)" style="ellipse;whiteSpace=wrap;html=1;" vertex="1" parent="mvioNwK95yMqdUQ73LqQ-36">
          <mxGeometry x="827.5" y="50" width="130" height="30" as="geometry" />
        </mxCell>
        <mxCell id="jcwyDGyreayZHSaf-gwD-8" style="edgeStyle=orthogonalEdgeStyle;rounded=0;orthogonalLoop=1;jettySize=auto;html=1;" edge="1" parent="mvioNwK95yMqdUQ73LqQ-36" source="jcwyDGyreayZHSaf-gwD-6">
          <mxGeometry relative="1" as="geometry">
            <mxPoint x="892.5" y="310" as="targetPoint" />
          </mxGeometry>
        </mxCell>
        <mxCell id="jcwyDGyreayZHSaf-gwD-6" value="&lt;div&gt;Declare &amp;amp; init&lt;/div&gt;159, 168, 191, 188, 154, 152, 167, 165, 178, 177&lt;div&gt;value in array&lt;/div&gt;" style="rounded=0;whiteSpace=wrap;html=1;" vertex="1" parent="mvioNwK95yMqdUQ73LqQ-36">
          <mxGeometry x="820" y="140" width="145" height="100" as="geometry" />
        </mxCell>
        <mxCell id="jcwyDGyreayZHSaf-gwD-10" style="edgeStyle=orthogonalEdgeStyle;rounded=0;orthogonalLoop=1;jettySize=auto;html=1;" edge="1" parent="mvioNwK95yMqdUQ73LqQ-36" source="jcwyDGyreayZHSaf-gwD-9">
          <mxGeometry relative="1" as="geometry">
            <mxPoint x="892.5" y="440.0000000000001" as="targetPoint" />
          </mxGeometry>
        </mxCell>
        <mxCell id="jcwyDGyreayZHSaf-gwD-9" value="i = 0" style="rounded=0;whiteSpace=wrap;html=1;" vertex="1" parent="mvioNwK95yMqdUQ73LqQ-36">
          <mxGeometry x="832.5" y="310" width="120" height="60" as="geometry" />
        </mxCell>
        <mxCell id="jcwyDGyreayZHSaf-gwD-13" style="edgeStyle=orthogonalEdgeStyle;rounded=0;orthogonalLoop=1;jettySize=auto;html=1;" edge="1" parent="mvioNwK95yMqdUQ73LqQ-36" source="jcwyDGyreayZHSaf-gwD-12">
          <mxGeometry relative="1" as="geometry">
            <mxPoint x="892.5" y="530.0000000000001" as="targetPoint" />
          </mxGeometry>
        </mxCell>
        <mxCell id="jcwyDGyreayZHSaf-gwD-12" value="" style="ellipse;whiteSpace=wrap;html=1;aspect=fixed;" vertex="1" parent="mvioNwK95yMqdUQ73LqQ-36">
          <mxGeometry x="880" y="440" width="25" height="25" as="geometry" />
        </mxCell>
        <mxCell id="jcwyDGyreayZHSaf-gwD-15" style="edgeStyle=orthogonalEdgeStyle;rounded=0;orthogonalLoop=1;jettySize=auto;html=1;" edge="1" parent="mvioNwK95yMqdUQ73LqQ-36" source="jcwyDGyreayZHSaf-gwD-14">
          <mxGeometry relative="1" as="geometry">
            <mxPoint x="892.5" y="759.9999999999998" as="targetPoint" />
          </mxGeometry>
        </mxCell>
        <mxCell id="jcwyDGyreayZHSaf-gwD-26" style="edgeStyle=orthogonalEdgeStyle;rounded=0;orthogonalLoop=1;jettySize=auto;html=1;entryX=0.5;entryY=0;entryDx=0;entryDy=0;" edge="1" parent="mvioNwK95yMqdUQ73LqQ-36" source="jcwyDGyreayZHSaf-gwD-14" target="jcwyDGyreayZHSaf-gwD-23">
          <mxGeometry relative="1" as="geometry">
            <Array as="points">
              <mxPoint x="1210" y="585" />
              <mxPoint x="1210" y="1370" />
              <mxPoint x="913" y="1370" />
            </Array>
          </mxGeometry>
        </mxCell>
        <mxCell id="jcwyDGyreayZHSaf-gwD-14" value="i &amp;lt; 10" style="rhombus;whiteSpace=wrap;html=1;" vertex="1" parent="mvioNwK95yMqdUQ73LqQ-36">
          <mxGeometry x="837.5" y="530" width="110" height="110" as="geometry" />
        </mxCell>
        <mxCell id="jcwyDGyreayZHSaf-gwD-16" value="Yes" style="text;html=1;align=center;verticalAlign=middle;resizable=0;points=[];autosize=1;strokeColor=none;fillColor=none;" vertex="1" parent="mvioNwK95yMqdUQ73LqQ-36">
          <mxGeometry x="827.5" y="650" width="40" height="30" as="geometry" />
        </mxCell>
        <mxCell id="jcwyDGyreayZHSaf-gwD-17" value="No" style="text;html=1;align=center;verticalAlign=middle;resizable=0;points=[];autosize=1;strokeColor=none;fillColor=none;" vertex="1" parent="mvioNwK95yMqdUQ73LqQ-36">
          <mxGeometry x="938" y="530" width="40" height="30" as="geometry" />
        </mxCell>
        <mxCell id="jcwyDGyreayZHSaf-gwD-38" style="edgeStyle=orthogonalEdgeStyle;rounded=0;orthogonalLoop=1;jettySize=auto;html=1;entryX=0.5;entryY=0;entryDx=0;entryDy=0;" edge="1" parent="mvioNwK95yMqdUQ73LqQ-36" source="jcwyDGyreayZHSaf-gwD-18" target="jcwyDGyreayZHSaf-gwD-20">
          <mxGeometry relative="1" as="geometry" />
        </mxCell>
        <mxCell id="jcwyDGyreayZHSaf-gwD-42" style="edgeStyle=orthogonalEdgeStyle;rounded=0;orthogonalLoop=1;jettySize=auto;html=1;" edge="1" parent="mvioNwK95yMqdUQ73LqQ-36" source="jcwyDGyreayZHSaf-gwD-18">
          <mxGeometry relative="1" as="geometry">
            <mxPoint x="790" y="1040" as="targetPoint" />
          </mxGeometry>
        </mxCell>
        <mxCell id="jcwyDGyreayZHSaf-gwD-18" value="Height[ i ] == target ?" style="rhombus;whiteSpace=wrap;html=1;" vertex="1" parent="mvioNwK95yMqdUQ73LqQ-36">
          <mxGeometry x="829.5" y="760" width="127" height="130" as="geometry" />
        </mxCell>
        <mxCell id="jcwyDGyreayZHSaf-gwD-43" style="edgeStyle=orthogonalEdgeStyle;rounded=0;orthogonalLoop=1;jettySize=auto;html=1;" edge="1" parent="mvioNwK95yMqdUQ73LqQ-36" source="jcwyDGyreayZHSaf-gwD-44" target="jcwyDGyreayZHSaf-gwD-25">
          <mxGeometry relative="1" as="geometry" />
        </mxCell>
        <mxCell id="jcwyDGyreayZHSaf-gwD-20" value="Display &quot;Max height = &quot; + Height[ i ]" style="shape=parallelogram;perimeter=parallelogramPerimeter;whiteSpace=wrap;html=1;fixedSize=1;" vertex="1" parent="mvioNwK95yMqdUQ73LqQ-36">
          <mxGeometry x="984" y="1020" width="170" height="70" as="geometry" />
        </mxCell>
        <mxCell id="jcwyDGyreayZHSaf-gwD-23" value="return void" style="ellipse;whiteSpace=wrap;html=1;" vertex="1" parent="mvioNwK95yMqdUQ73LqQ-36">
          <mxGeometry x="848" y="1390" width="130" height="30" as="geometry" />
        </mxCell>
        <mxCell id="jcwyDGyreayZHSaf-gwD-41" style="edgeStyle=orthogonalEdgeStyle;rounded=0;orthogonalLoop=1;jettySize=auto;html=1;entryX=0;entryY=0.5;entryDx=0;entryDy=0;" edge="1" parent="mvioNwK95yMqdUQ73LqQ-36" source="jcwyDGyreayZHSaf-gwD-25" target="jcwyDGyreayZHSaf-gwD-12">
          <mxGeometry relative="1" as="geometry">
            <Array as="points">
              <mxPoint x="580" y="453" />
            </Array>
          </mxGeometry>
        </mxCell>
        <mxCell id="jcwyDGyreayZHSaf-gwD-25" value="i++" style="rounded=0;whiteSpace=wrap;html=1;" vertex="1" parent="mvioNwK95yMqdUQ73LqQ-36">
          <mxGeometry x="520" y="650" width="120" height="60" as="geometry" />
        </mxCell>
        <mxCell id="jcwyDGyreayZHSaf-gwD-46" style="edgeStyle=orthogonalEdgeStyle;rounded=0;orthogonalLoop=1;jettySize=auto;html=1;" edge="1" parent="mvioNwK95yMqdUQ73LqQ-36" source="jcwyDGyreayZHSaf-gwD-28">
          <mxGeometry relative="1" as="geometry">
            <mxPoint x="320" y="600" as="targetPoint" />
          </mxGeometry>
        </mxCell>
        <mxCell id="jcwyDGyreayZHSaf-gwD-28" value="findAge(maxAge)" style="shape=process;whiteSpace=wrap;html=1;backgroundOutline=1;" vertex="1" parent="mvioNwK95yMqdUQ73LqQ-36">
          <mxGeometry x="240" y="430" width="160" height="70" as="geometry" />
        </mxCell>
        <mxCell id="jcwyDGyreayZHSaf-gwD-30" style="edgeStyle=orthogonalEdgeStyle;rounded=0;orthogonalLoop=1;jettySize=auto;html=1;" edge="1" parent="mvioNwK95yMqdUQ73LqQ-36" source="jcwyDGyreayZHSaf-gwD-29">
          <mxGeometry relative="1" as="geometry">
            <mxPoint x="1355" y="150" as="targetPoint" />
          </mxGeometry>
        </mxCell>
        <mxCell id="jcwyDGyreayZHSaf-gwD-29" value="findAge(*target)" style="ellipse;whiteSpace=wrap;html=1;" vertex="1" parent="mvioNwK95yMqdUQ73LqQ-36">
          <mxGeometry x="1290" y="50" width="130" height="30" as="geometry" />
        </mxCell>
        <mxCell id="jcwyDGyreayZHSaf-gwD-32" style="edgeStyle=orthogonalEdgeStyle;rounded=0;orthogonalLoop=1;jettySize=auto;html=1;" edge="1" parent="mvioNwK95yMqdUQ73LqQ-36" source="jcwyDGyreayZHSaf-gwD-31">
          <mxGeometry relative="1" as="geometry">
            <mxPoint x="1355" y="250" as="targetPoint" />
          </mxGeometry>
        </mxCell>
        <mxCell id="jcwyDGyreayZHSaf-gwD-31" value="Init&lt;div&gt;*target = 19&lt;/div&gt;" style="rounded=0;whiteSpace=wrap;html=1;" vertex="1" parent="mvioNwK95yMqdUQ73LqQ-36">
          <mxGeometry x="1295" y="150" width="120" height="60" as="geometry" />
        </mxCell>
        <mxCell id="jcwyDGyreayZHSaf-gwD-34" style="edgeStyle=orthogonalEdgeStyle;rounded=0;orthogonalLoop=1;jettySize=auto;html=1;" edge="1" parent="mvioNwK95yMqdUQ73LqQ-36" source="jcwyDGyreayZHSaf-gwD-33">
          <mxGeometry relative="1" as="geometry">
            <mxPoint x="1350" y="350" as="targetPoint" />
          </mxGeometry>
        </mxCell>
        <mxCell id="jcwyDGyreayZHSaf-gwD-33" value="Declare &amp;amp; init&lt;div&gt;8, 19, 18, 17, 16, 18, 17, 18, 18, 18&lt;/div&gt;&lt;div&gt;value in array&lt;/div&gt;" style="rounded=0;whiteSpace=wrap;html=1;" vertex="1" parent="mvioNwK95yMqdUQ73LqQ-36">
          <mxGeometry x="1290" y="250" width="120" height="60" as="geometry" />
        </mxCell>
        <mxCell id="jcwyDGyreayZHSaf-gwD-35" value="return void" style="ellipse;whiteSpace=wrap;html=1;" vertex="1" parent="mvioNwK95yMqdUQ73LqQ-36">
          <mxGeometry x="1285" y="350" width="130" height="30" as="geometry" />
        </mxCell>
        <mxCell id="jcwyDGyreayZHSaf-gwD-36" value="Yes" style="text;html=1;align=center;verticalAlign=middle;resizable=0;points=[];autosize=1;strokeColor=none;fillColor=none;" vertex="1" parent="mvioNwK95yMqdUQ73LqQ-36">
          <mxGeometry x="965" y="780" width="40" height="30" as="geometry" />
        </mxCell>
        <mxCell id="jcwyDGyreayZHSaf-gwD-37" value="No" style="text;html=1;align=center;verticalAlign=middle;resizable=0;points=[];autosize=1;strokeColor=none;fillColor=none;" vertex="1" parent="mvioNwK95yMqdUQ73LqQ-36">
          <mxGeometry x="808" y="780" width="40" height="30" as="geometry" />
        </mxCell>
        <mxCell id="jcwyDGyreayZHSaf-gwD-44" value="" style="ellipse;whiteSpace=wrap;html=1;aspect=fixed;" vertex="1" parent="mvioNwK95yMqdUQ73LqQ-36">
          <mxGeometry x="778" y="1040" width="30" height="30" as="geometry" />
        </mxCell>
        <mxCell id="jcwyDGyreayZHSaf-gwD-45" value="" style="edgeStyle=orthogonalEdgeStyle;rounded=0;orthogonalLoop=1;jettySize=auto;html=1;" edge="1" parent="mvioNwK95yMqdUQ73LqQ-36" source="jcwyDGyreayZHSaf-gwD-20" target="jcwyDGyreayZHSaf-gwD-44">
          <mxGeometry relative="1" as="geometry">
            <mxPoint x="254" y="1105" as="sourcePoint" />
            <mxPoint x="-160" y="770" as="targetPoint" />
          </mxGeometry>
        </mxCell>
        <mxCell id="jcwyDGyreayZHSaf-gwD-47" value="&lt;font data-font-src=&quot;https://fonts.googleapis.com/css?family=Sarabun&quot; face=&quot;Sarabun&quot;&gt;End&lt;/font&gt;" style="ellipse;whiteSpace=wrap;html=1;" vertex="1" parent="mvioNwK95yMqdUQ73LqQ-36">
          <mxGeometry x="255" y="760" width="130" height="30" as="geometry" />
        </mxCell>
        <mxCell id="jcwyDGyreayZHSaf-gwD-49" style="edgeStyle=orthogonalEdgeStyle;rounded=0;orthogonalLoop=1;jettySize=auto;html=1;entryX=0.5;entryY=0;entryDx=0;entryDy=0;" edge="1" parent="mvioNwK95yMqdUQ73LqQ-36" source="jcwyDGyreayZHSaf-gwD-48" target="jcwyDGyreayZHSaf-gwD-47">
          <mxGeometry relative="1" as="geometry" />
        </mxCell>
        <mxCell id="jcwyDGyreayZHSaf-gwD-48" value="Display &quot;Max age = &quot; + maxAge" style="shape=parallelogram;perimeter=parallelogramPerimeter;whiteSpace=wrap;html=1;fixedSize=1;" vertex="1" parent="mvioNwK95yMqdUQ73LqQ-36">
          <mxGeometry x="217.5" y="600" width="205" height="60" as="geometry" />
        </mxCell>
      </root>
    </mxGraphModel>
  </diagram>
</mxfile>
